<svg width="13" height="12" viewBox="0 0 13 12" fill="none" xmlns="http://www.w3.org/2000/svg">
<path fill-rule="evenodd" clip-rule="evenodd" d="M5.1665 0C4.94103 0 4.74345 0.150911 4.68412 0.368441L3.28461 5.5H1.1665C0.890361 5.5 0.666504 5.72386 0.666504 6V11.5C0.666504 11.7761 0.890361 12 1.1665 12H9.88003C10.3574 11.9995 10.8189 11.8283 11.181 11.5172C11.5432 11.2062 11.7821 10.7758 11.8547 10.304L12.3932 6.804C12.437 6.51901 12.4187 6.22791 12.3395 5.95067C12.2603 5.67342 12.1221 5.41657 11.9344 5.19773C11.7466 4.97889 11.5138 4.80324 11.2518 4.68281C10.9898 4.56237 10.7048 4.50001 10.4165 4.5H7.1665V2C7.1665 1.46957 6.95579 0.960859 6.58072 0.585786C6.20564 0.210714 5.69694 0 5.1665 0ZM3.1665 11V6.5H1.6665V11H3.1665ZM4.1665 6.06696L5.52977 1.06831C5.65747 1.11811 5.77481 1.1941 5.87361 1.29289C6.06115 1.48043 6.1665 1.73478 6.1665 2V5C6.1665 5.27614 6.39036 5.5 6.6665 5.5H10.4165C10.5607 5.50001 10.7031 5.53119 10.8341 5.5914C10.9651 5.65162 11.0815 5.73945 11.1754 5.84887C11.2693 5.95828 11.3384 6.08671 11.378 6.22533C11.4176 6.36395 11.4267 6.50952 11.4048 6.652L10.8663 10.152C10.83 10.3879 10.7106 10.6031 10.5295 10.7586C10.3484 10.9141 10.1177 10.9998 9.87898 11H4.1665V6.06696Z" fill="#30CFB4"/>
</svg>
