<svg width="13" height="12" viewBox="0 0 13 12" fill="none" xmlns="http://www.w3.org/2000/svg">
<path fill-rule="evenodd" clip-rule="evenodd" d="M0.833496 6.5C0.557354 6.5 0.333496 6.27614 0.333496 6V0.5C0.333496 0.223857 0.557354 0 0.833496 0H9.54702C10.0244 0.000500679 10.4859 0.171744 10.848 0.482788C11.2102 0.793824 11.4491 1.22417 11.5217 1.696L12.0602 5.196C12.104 5.48099 12.0857 5.77209 12.0065 6.04934C11.9273 6.32658 11.7891 6.58343 11.6013 6.80227C11.4136 7.02111 11.1808 7.19676 10.9188 7.3172C10.6568 7.43763 10.3718 7.49999 10.0835 7.5H6.8335V10C6.8335 10.5304 6.62278 11.0391 6.24771 11.4142C5.87264 11.7893 5.36393 12 4.8335 12C4.60802 12 4.41044 11.8491 4.35111 11.6316L2.9516 6.5H0.833496ZM2.8335 5.5V1H1.3335V5.5H2.8335ZM3.8335 5.93304L5.19676 10.9317C5.32447 10.8819 5.44181 10.8059 5.5406 10.7071C5.72814 10.5196 5.8335 10.2652 5.8335 10V7C5.8335 6.72386 6.05735 6.5 6.3335 6.5H10.0835C10.2277 6.49999 10.3701 6.46881 10.5011 6.4086C10.6321 6.34838 10.7485 6.26055 10.8424 6.15114C10.9363 6.04172 11.0054 5.91329 11.045 5.77467C11.0846 5.63605 11.0937 5.49048 11.0718 5.348L10.5333 1.848C10.497 1.61208 10.3776 1.39692 10.1965 1.24139C10.0154 1.08587 9.78467 1.00025 9.54597 1H3.8335V5.93304Z" fill="#FD7294"/>
</svg>
