<svg width="122" height="122" viewBox="0 0 122 122" fill="none" xmlns="http://www.w3.org/2000/svg">
<path d="M107.347 15.5773C107.239 15.5374 107.129 15.5046 107.016 15.4794L61.4155 5.34609C61.3318 5.3392 61.2478 5.33648 61.1638 5.33794C60.9253 5.32285 60.6851 5.34076 60.4503 5.39168L14.8503 15.525C14.2873 15.6502 13.7839 15.9637 13.4232 16.4137C13.0625 16.8637 12.8662 17.4234 12.8667 18.0001V68.6667C12.8667 81.4325 17.9379 93.6754 26.9646 102.702C35.9914 111.729 48.2343 116.8 61 116.8C73.7658 116.8 86.0087 111.729 95.0354 102.702C104.062 93.6754 109.133 81.4325 109.133 68.6667V18.0001C109.134 17.4234 108.938 16.8637 108.577 16.4137C108.259 16.017 107.83 15.7263 107.347 15.5773Z" fill="#94CDFF"/>
<path d="M98.9202 23.8485C98.832 23.8158 98.7414 23.789 98.6488 23.7684L61.3399 15.4776C61.2714 15.4719 61.2027 15.4697 61.134 15.4709C60.9388 15.4586 60.7423 15.4732 60.5502 15.5149L23.2413 23.8057C22.7807 23.9081 22.3688 24.1646 22.0737 24.5328C21.7786 24.901 21.618 25.3589 21.6184 25.8308V67.2851C21.6184 77.7297 25.7675 87.7466 33.153 95.1321C40.5385 102.518 50.5553 106.667 61 106.667C71.4446 106.667 81.4615 102.518 88.847 95.1321C96.2325 87.7466 100.382 77.7297 100.382 67.2851V25.8308C100.382 25.3589 100.221 24.901 99.9263 24.5328C99.6661 24.2082 99.3152 23.9705 98.9202 23.8485Z" fill="#1A94FF"/>
<path d="M71.1333 56.0001C70.4614 56.0001 69.817 55.7332 69.3419 55.2581C68.8668 54.783 68.5999 54.1386 68.5999 53.4667V43.3334C68.5999 41.3178 67.7992 39.3847 66.3739 37.9594C64.9487 36.5341 63.0156 35.7334 60.9999 35.7334C58.9843 35.7334 57.0512 36.5341 55.6259 37.9594C54.2006 39.3847 53.3999 41.3178 53.3999 43.3334V53.4667C53.3999 54.1386 53.133 54.783 52.6579 55.2581C52.1828 55.7332 51.5385 56.0001 50.8666 56.0001C50.1947 56.0001 49.5503 55.7332 49.0752 55.2581C48.6002 54.783 48.3333 54.1386 48.3333 53.4667V43.3334C48.3333 39.974 49.6678 36.7522 52.0432 34.3767C54.4187 32.0013 57.6405 30.6667 60.9999 30.6667C64.3593 30.6667 67.5811 32.0013 69.9566 34.3767C72.3321 36.7522 73.6666 39.974 73.6666 43.3334V53.4667C73.6666 54.1386 73.3997 54.783 72.9246 55.2581C72.4495 55.7332 71.8051 56.0001 71.1333 56.0001Z" fill="white"/>
<path d="M78.7333 86.4001H43.2666C41.9229 86.4001 40.6341 85.8663 39.6839 84.9161C38.7338 83.966 38.2 82.6772 38.2 81.3335V56.0001C38.2 54.6564 38.7338 53.3676 39.6839 52.4175C40.6341 51.4673 41.9229 50.9335 43.2666 50.9335H78.7333C80.0771 50.9335 81.3658 51.4673 82.316 52.4175C83.2662 53.3676 83.8 54.6564 83.8 56.0001V81.3335C83.8 82.6772 83.2662 83.966 82.316 84.9161C81.3658 85.8663 80.0771 86.4001 78.7333 86.4001Z" fill="#FFD530"/>
<path d="M66.0666 66.1334C66.0706 65.243 65.84 64.3674 65.3979 63.5945C64.9557 62.8217 64.3178 62.179 63.5482 61.7312C62.7787 61.2835 61.9047 61.0464 61.0143 61.0438C60.124 61.0413 59.2487 61.2735 58.4766 61.7169C57.7046 62.1603 57.063 62.7994 56.6165 63.5697C56.17 64.34 55.9344 65.2144 55.9334 66.1047C55.9323 66.9951 56.166 67.87 56.6107 68.6413C57.0554 69.4126 57.6956 70.0531 58.4666 70.4983V78.8001H63.5333V70.4983C64.3012 70.0568 64.9395 69.421 65.3841 68.6549C65.8288 67.8888 66.0641 67.0192 66.0666 66.1334Z" fill="#141828"/>
</svg>
